Coordinates
version=1
nRows=24
nColumns=22
inDegrees=yes

Units are S.I. units (second, meters, Newtons, ...)
If the header above contains a line with 'inDegrees', this indicates whether rotational values are in degrees (yes) or radians (no).

endheader
time	pelvis_tilt	pelvis_list	pelvis_rotation	pelvis_tx	pelvis_ty	pelvis_tz	hip_flexion_r	hip_adduction_r	hip_rotation_r	knee_angle_r	ankle_angle_r	subtalar_angle_r	hip_flexion_l	hip_adduction_l	hip_rotation_l	knee_angle_l	ankle_angle_l	subtalar_angle_l	lumbar_extension	lumbar_bending	lumbar_rotation
      0.01000000	      3.08840526	     -2.06678607	     -6.16965969	     -1.29317114	      0.94088043	      0.01747497	     -2.92243263	      0.99874401	      4.57989028	     -7.82564900	      5.06955047	      1.46341497	     -3.07923013	     -3.82149134	    -12.14381697	    -11.04006084	      8.15831135	      0.70914504	     -4.51930699	     -2.50112246	      1.72123648
      0.02000000	      3.08094078	     -2.06429722	     -6.16969472	     -1.29302331	      0.94086879	      0.01751964	     -2.92461919	      0.99883969	      4.57997872	     -7.82636408	      5.06965157	      1.46361696	     -3.08080572	     -3.82174409	    -12.14351124	    -11.04112784	      8.15851059	      0.70927029	     -4.52180190	     -2.50052014	      1.72109111
      0.03000000	      3.05484738	     -2.05167953	     -6.16097224	     -1.29281047	      0.94082574	      0.01755389	     -2.93350672	      0.98821774	      4.58458549	     -7.78153890	      5.08530883	      1.47849030	     -3.06307123	     -3.81272515	    -12.12452751	    -11.04460359	      8.17891293	      0.72079511	     -4.49665176	     -2.50450277	      1.70257738
      0.04000000	      3.04505212	     -2.04790106	     -6.16130975	     -1.29261702	      0.94080865	      0.01762463	     -2.93600733	      0.98841715	      4.58451833	     -7.78288486	      5.08521040	      1.47858624	     -3.06512707	     -3.81341681	    -12.12406681	    -11.04604618	      8.17882731	      0.72085301	     -4.50052822	     -2.50305395	      1.70223025
      0.05000000	      3.01539431	     -2.04573772	     -6.14416937	     -1.29243975	      0.94076159	      0.01766191	     -2.92540299	      0.99219270	      4.58431252	     -7.76850042	      5.09121133	      1.48749855	     -3.03305661	     -3.81912888	    -12.08705167	    -11.06484648	      8.17846445	      0.72802188	     -4.49200532	     -2.48638019	      1.63938924
      0.06000000	      3.00224828	     -2.04071715	     -6.14938989	     -1.29224146	      0.94073884	      0.01773741	     -2.92534392	      0.99059490	      4.58009860	     -7.76634801	      5.09146913	      1.48768463	     -3.03183546	     -3.81769674	    -12.08346340	    -11.06806753	      8.17862540	      0.72829996	     -4.49934799	     -2.47666425	      1.63617559
      0.07000000	      2.97271691	     -2.05153064	     -6.11763283	     -1.29205246	      0.94069391	      0.01778695	     -2.91484609	      1.01205932	      4.54943895	     -7.75994593	      5.09813675	      1.48723560	     -2.99818188	     -3.84146238	    -12.04417263	    -11.09118525	      8.17995302	      0.72750360	     -4.49516788	     -2.44556803	      1.56336092
      0.08000000	      2.95838885	     -2.04599913	     -6.12224533	     -1.29187640	      0.94067238	      0.01788965	     -2.91248049	      1.01217902	      4.54463665	     -7.75669242	      5.09799964	      1.48690542	     -2.99540603	     -3.84191742	    -12.04140432	    -11.09161905	      8.18088514	      0.72746646	     -4.50924403	     -2.43837718	      1.56203302
      0.09000000	      2.94333718	     -2.04264632	     -6.12705943	     -1.29170806	      0.94065212	      0.01800648	     -2.90898588	      1.01593816	      4.53749117	     -7.75358036	      5.09832653	      1.48630971	     -2.99195164	     -3.84559865	    -12.03779722	    -11.09195355	      8.18125575	      0.72711275	     -4.52541686	     -2.43111153	      1.55824586
      0.10000000	      2.92389707	     -2.08612333	     -6.09897395	     -1.29154759	      0.94062699	      0.01809539	     -2.89475131	      1.07472137	      4.45254387	     -7.77655585	      5.09649958	      1.47535965	     -2.97109860	     -3.90653204	    -11.99741812	    -11.11861352	      8.18331476	      0.72178152	     -4.54438581	     -2.36731848	      1.53131409
      0.11000000	      2.90830514	     -2.08198923	     -6.10233912	     -1.29138264	      0.94060825	      0.01823794	     -2.89134461	      1.08028691	      4.44688990	     -7.77191402	      5.09619883	      1.47461785	     -2.96759139	     -3.91134269	    -11.99618254	    -11.11666465	      8.18588612	      0.72188765	     -4.56115077	     -2.36959675	      1.52967083
      0.12000000	      2.88425521	     -2.11783351	     -6.07706122	     -1.29121700	      0.94057078	      0.01833856	     -2.87061652	      1.13193348	      4.35630877	     -7.79412082	      5.08223861	      1.44741860	     -2.94053210	     -3.96525548	    -11.96455890	    -11.14744777	      8.23065274	      0.72704418	     -4.57340373	     -2.32061173	      1.51197222
      0.13000000	      2.86982851	     -2.11420295	     -6.07524684	     -1.29103477	      0.94054819	      0.01847168	     -2.86894025	      1.13900643	      4.35299342	     -7.79137812	      5.08345285	      1.44632886	     -2.93764895	     -3.97054449	    -11.96289302	    -11.14639482	      8.23124059	      0.72723104	     -4.58753847	     -2.32581544	      1.51707934
      0.14000000	      2.85706966	     -2.11955255	     -6.06668094	     -1.29082901	      0.94051779	      0.01857335	     -2.86722333	      1.15520637	      4.33714456	     -7.79939490	      5.09442884	      1.43476808	     -2.93085456	     -3.98490436	    -11.93995100	    -11.16225838	      8.23665842	      0.72913254	     -4.59941207	     -2.31866343	      1.55513226
      0.15000000	      2.84522935	     -2.11432441	     -6.05406772	     -1.29060020	      0.94048190	      0.01863674	     -2.86849563	      1.15795729	      4.34207986	     -7.80432564	      5.09765215	      1.43182722	     -2.93068728	     -3.98486614	    -11.93819544	    -11.16150848	      8.23986457	      0.72958638	     -4.60834407	     -2.31828117	      1.55925060
      0.16000000	      2.84135174	     -2.09421735	     -6.03486588	     -1.29037302	      0.94043644	      0.01866044	     -2.87691005	      1.14446824	      4.40153760	     -7.81499271	      5.13709784	      1.40961554	     -2.92860410	     -3.96517472	    -11.89121877	    -11.17895003	      8.26341414	      0.73145030	     -4.62576343	     -2.33375455	      1.56676387
      0.17000000	      2.83772390	     -2.05517699	     -6.00817358	     -1.29009414	      0.94038081	      0.01862519	     -2.89797318	      1.10660061	      4.48730428	     -7.80610677	      5.18872334	      1.38159009	     -2.93518889	     -3.92005561	    -11.85535471	    -11.17609670	      8.28137023	      0.72894617	     -4.63287172	     -2.36434181	      1.55601533
      0.18000000	      2.84378484	     -1.99478692	     -5.98730298	     -1.28978183	      0.94033777	      0.01856417	     -2.93602784	      1.04206421	      4.58656284	     -7.78322768	      5.26867007	      1.32342669	     -2.96928866	     -3.84283263	    -11.82101572	    -11.13672187	      8.26912488	      0.70691902	     -4.64327421	     -2.41652856	      1.56563402
      0.19000000	      2.86682100	     -1.94113175	     -5.96491822	     -1.28950870	      0.94032264	      0.01850178	     -2.97758055	      0.98413626	      4.68425482	     -7.78765003	      5.32348988	      1.25639388	     -3.01115921	     -3.77337800	    -11.78467384	    -11.11562356	      8.24504054	      0.66592600	     -4.68081336	     -2.46462795	      1.56781447
      0.20000000	      2.86317694	     -1.90923427	     -5.93050268	     -1.28927135	      0.94027213	      0.01844089	     -2.99409060	      0.95336385	      4.76406081	     -7.78451026	      5.34968691	      1.24856712	     -3.00525735	     -3.73787819	    -11.74970932	    -11.13164080	      8.25898238	      0.66253847	     -4.69413140	     -2.48418387	      1.54887543
      0.21000000	      2.85181197	     -1.87650698	     -5.90578851	     -1.28904525	      0.94022493	      0.01840811	     -3.00316657	      0.92201674	      4.82951354	     -7.77519026	      5.38970808	      1.23699500	     -3.00138489	     -3.70007379	    -11.71433655	    -11.12682136	      8.26507643	      0.65478466	     -4.69809487	     -2.50626639	      1.53760164
      0.22000000	      2.84036696	     -1.86906325	     -5.88771855	     -1.28883428	      0.94019302	      0.01840520	     -3.00424560	      0.91736503	      4.83782870	     -7.77955502	      5.39280216	      1.23562575	     -2.99999551	     -3.69359349	    -11.71436954	    -11.12350958	      8.26528558	      0.65401531	     -4.70573557	     -2.49966901	      1.54068132
      0.23000000	      2.80368031	     -1.83616170	     -5.87001323	     -1.28867042	      0.94012745	      0.01842926	     -2.97375582	      0.89036904	      4.88175279	     -7.78561057	      5.45704533	      1.21008830	     -2.96713221	     -3.66109824	    -11.65599550	    -11.11717325	      8.26114864	      0.63718378	     -4.68611211	     -2.52548245	      1.51883359
      0.24000000	      2.79093500	     -1.83145391	     -5.86344083	     -1.28851176	      0.94010900	      0.01846944	     -2.96943626	      0.88911232	      4.88386801	     -7.78843183	      5.45753972	      1.20905548	     -2.96306682	     -3.65879489	    -11.65622745	    -11.11479677	      8.26107618	      0.63671728	     -4.69850586	     -2.51820247	      1.51793530
